<svg fill="none" height="15" viewBox="0 0 15 15" width="15" xmlns="http://www.w3.org/2000/svg"><path d="m8.99996 2.49988v-.5zm-3.00001.00002v.5zm6.85565 9.4223-.3505-.3566-.2039.2005.0693.2773zm.6444 2.5777-.1212.4851c.1704.0426.3506-.0074.4748-.1316.1242-.1241.1741-.3044.1315-.4748zm-3.99995-.9999-.35356-.3536-.62445.6245.85675.2141zm.02477-.0248.35356.3535c.14912-.1491.18862-.3757.09884-.5664-.08979-.1908-.28961-.3048-.49952-.2849zm-9.02482-5.47532h-.5zm6.5-7.99988v2.5h1v-2.5zm1.99996 1.99988-3.00002.00002.00001 1 3.00002-.00002zm6.00004 6c0-3.31373-2.6863-6.00003-6.00004-6l.00001 1c2.76143-.00003 5.00003 2.23856 5.00003 5zm-1.7939 4.27882c1.1067-1.0879 1.7939-2.60357 1.7939-4.27882h-1c0 1.39624-.5716 2.65802-1.4949 3.56572zm.779 2.0999-.6444-2.5777-.9702.2425.6445 2.5778zm-4.60631-.3936 4.00001 1 .2425-.9702-3.99999-.9999zm-.20752-.8634-.02478.0248.70711.7071.02478-.0248zm-.17126.8783c.19277 0 .38356-.0091.57193-.0269l-.09424-.9956c-.15709.0149-.31643.0225-.47769.0225zm-3.00002 0h3.00002v-1h-3.00002zm-5.99999-6.00002c-.00000918 3.31372 2.68628 6.00002 5.99999 6.00002v-1c-2.76142 0-4.999998-2.2386-4.99999-5.00002zm5.99994-5.99998c-3.31368.00003-5.99993082 2.6863-5.99994 5.99998h1c.00001-2.76139 2.23855-4.99995 4.99995-4.99998zm1.50006 6.0001c-.82843 0-1.5-.67157-1.5-1.5h-1c0 1.38071 1.11929 2.5 2.5 2.5zm1.5-1.5c0 .82843-.67157 1.5-1.5 1.5v1c1.38071 0 2.5-1.11929 2.5-2.5zm-1.5-1.5c.82843 0 1.5.67157 1.5 1.5h1c0-1.38071-1.11929-2.5-2.5-2.5zm0-1c-1.38071 0-2.5 1.11929-2.5 2.5h1c0-.82843.67157-1.5 1.5-1.5zm-.00001 8c1.06369 0 2.04242-.3697 2.81271-.9872l-.62546-.7802c-.59929.4804-1.35907.7674-2.18725.7674zm-2.81272-.9872c.7703.6175 1.74902.9872 2.81272.9872v-1c-.82819 0-1.58797-.287-2.18726-.7674z" fill="#000"/></svg>